<?xml version="1.0" encoding="UTF-8"?>
<svg xmlns="http://www.w3.org/2000/svg"
     xmlns:xlink="http://www.w3.org/1999/xlink"
     xmlns:gadfly="http://www.gadflyjl.org/ns"
     version="1.2"
     width="300mm" height="100mm" viewBox="0 0 300 100"
     stroke="none"
     fill="#000000"
     stroke-width="0.3"
     font-size="3.88"
>
<g class="plotroot xscalable yscalable" id="img-cfb106a4-1">
  <g class="guide xlabels" font-size="2.82" font-family="'PT Sans Caption','Helvetica Neue','Helvetica',sans-serif" fill="#6C606B" id="img-cfb106a4-2">
    <text x="212.78" y="91.95" text-anchor="middle" dy="0.6em">-0.5</text>
    <text x="228.82" y="91.95" text-anchor="middle" dy="0.6em">0.0</text>
    <text x="244.87" y="91.95" text-anchor="middle" dy="0.6em">0.5</text>
    <text x="260.91" y="91.95" text-anchor="middle" dy="0.6em">1.0</text>
    <text x="276.96" y="91.95" text-anchor="middle" dy="0.6em">1.5</text>
    <text x="293" y="91.95" text-anchor="middle" dy="0.6em">2.0</text>
  </g>
<g clip-path="url(#img-cfb106a4-3)">
  <g id="img-cfb106a4-4">
    <g pointer-events="visible" opacity="1" fill="#000000" fill-opacity="0.000" stroke="#000000" stroke-opacity="0.000" class="guide background" id="img-cfb106a4-5">
      <rect x="210.78" y="11.79" width="84.22" height="79.16"/>
    </g>
    <g class="guide xgridlines yfixed" stroke-dasharray="0.5,0.5" stroke-width="0.2" stroke="#D0D0E0" id="img-cfb106a4-6">
      <path fill="none" d="M212.78,11.79 L 212.78 90.95"/>
      <path fill="none" d="M228.82,11.79 L 228.82 90.95"/>
      <path fill="none" d="M244.87,11.79 L 244.87 90.95"/>
      <path fill="none" d="M260.91,11.79 L 260.91 90.95"/>
      <path fill="none" d="M276.96,11.79 L 276.96 90.95"/>
      <path fill="none" d="M293,11.79 L 293 90.95"/>
    </g>
    <g class="guide ygridlines xfixed" stroke-dasharray="0.5,0.5" stroke-width="0.2" stroke="#D0D0E0" id="img-cfb106a4-7">
      <path fill="none" d="M210.78,88.95 L 295 88.95"/>
      <path fill="none" d="M210.78,51.37 L 295 51.37"/>
      <path fill="none" d="M210.78,13.79 L 295 13.79"/>
    </g>
    <g class="plotpanel" id="img-cfb106a4-8">
      <g stroke-width="0.3" fill="#000000" fill-opacity="0.000" class="geometry" stroke-dasharray="none" stroke="#00BFFF" id="img-cfb106a4-9">
        <path fill="none" d="M212.78,88.95 L 212.94 88.95 213.1 88.95 213.26 88.95 213.42 88.95 213.58 88.95 213.74 88.95 213.9 88.95 214.07 88.95 214.23 88.95 214.39 88.95 214.55 88.95 214.71 88.95 214.87 88.95 215.03 88.95 215.19 88.95 215.35 88.95 215.51 88.95 215.67 88.95 215.83 88.95 215.99 88.95 216.15 88.95 216.32 88.95 216.48 88.95 216.64 88.95 216.8 88.95 216.96 88.95 217.12 88.95 217.28 88.95 217.44 88.95 217.6 88.95 217.76 88.95 217.92 88.95 218.08 88.95 218.24 88.95 218.41 88.95 218.57 88.95 218.73 88.95 218.89 88.95 219.05 88.95 219.21 88.95 219.37 88.95 219.53 88.95 219.69 88.95 219.85 88.95 220.01 88.95 220.17 88.95 220.33 88.95 220.5 88.95 220.66 88.95 220.82 88.95 220.98 88.95 221.14 88.95 221.3 88.95 221.46 88.95 221.62 88.95 221.78 88.95 221.94 88.95 222.1 88.95 222.26 88.95 222.42 88.95 222.59 88.95 222.75 88.95 222.91 88.95 223.07 88.95 223.23 88.95 223.39 88.95 223.55 88.95 223.71 88.95 223.87 88.95 224.03 88.95 224.19 88.95 224.35 88.95 224.51 88.95 224.68 88.95 224.84 88.95 225 88.95 225.16 88.95 225.32 88.95 225.48 88.95 225.64 88.95 225.8 88.95 225.96 88.95 226.12 88.95 226.28 88.95 226.44 88.95 226.6 88.95 226.77 88.95 226.93 88.95 227.09 88.95 227.25 88.95 227.41 88.95 227.57 88.95 227.73 88.95 227.89 88.95 228.05 88.95 228.21 88.95 228.37 88.95 228.53 88.95 228.69 88.95 228.86 88.95 229.02 88.95 229.18 88.95 229.34 88.95 229.5 88.95 229.66 88.95 229.82 88.95 229.98 88.95 230.14 88.95 230.3 88.95 230.46 88.95 230.62 88.95 230.78 88.95 230.95 88.95 231.11 88.95 231.27 88.95 231.43 88.95 231.59 88.95 231.75 88.95 231.91 88.95 232.07 88.95 232.23 88.95 232.39 88.95 232.55 88.95 232.71 88.95 232.87 88.95 233.04 88.95 233.2 88.95 233.36 88.95 233.52 88.95 233.68 88.95 233.84 88.95 234 88.95 234.16 88.95 234.32 88.95 234.48 88.95 234.64 88.95 234.8 88.95 234.96 88.95 235.13 88.95 235.29 88.95 235.45 88.95 235.61 88.95 235.77 88.95 235.93 88.95 236.09 88.95 236.25 88.95 236.41 88.95 236.57 88.95 236.73 88.95 236.89 88.95 237.05 88.95 237.22 88.95 237.38 88.95 237.54 88.95 237.7 88.95 237.86 88.95 238.02 88.95 238.18 88.95 238.34 88.95 238.5 88.95 238.66 88.95 238.82 88.95 238.98 88.95 239.14 88.95 239.3 88.95 239.47 88.95 239.63 88.95 239.79 88.95 239.95 88.95 240.11 88.95 240.27 88.95 240.43 88.95 240.59 88.95 240.75 88.95 240.91 88.95 241.07 88.95 241.23 88.95 241.39 88.95 241.56 88.95 241.72 88.95 241.88 88.95 242.04 88.95 242.2 88.95 242.36 88.95 242.52 88.95 242.68 88.95 242.84 88.95 243 88.95 243.16 88.95 243.32 88.95 243.48 88.95 243.65 88.95 243.81 88.95 243.97 88.95 244.13 88.95 244.29 88.95 244.45 88.95 244.61 88.95 244.77 88.95 244.93 13.79 245.09 13.79 245.25 13.79 245.41 13.79 245.57 13.79 245.74 13.79 245.9 13.79 246.06 13.79 246.22 13.79 246.38 13.79 246.54 13.79 246.7 13.79 246.86 13.79 247.02 13.79 247.18 13.79 247.34 13.79 247.5 13.79 247.66 13.79 247.83 13.79 247.99 13.79 248.15 13.79 248.31 13.79 248.47 13.79 248.63 13.79 248.79 13.79 248.95 13.79 249.11 13.79 249.27 13.79 249.43 13.79 249.59 13.79 249.75 13.79 249.92 13.79 250.08 13.79 250.24 13.79 250.4 13.79 250.56 13.79 250.72 13.79 250.88 13.79 251.04 13.79 251.2 13.79 251.36 13.79 251.52 13.79 251.68 13.79 251.84 13.79 252.01 13.79 252.17 13.79 252.33 13.79 252.49 13.79 252.65 13.79 252.81 13.79 252.97 13.79 253.13 13.79 253.29 13.79 253.45 13.79 253.61 13.79 253.77 13.79 253.93 13.79 254.1 13.79 254.26 13.79 254.42 13.79 254.58 13.79 254.74 13.79 254.9 13.79 255.06 13.79 255.22 13.79 255.38 13.79 255.54 13.79 255.7 13.79 255.86 13.79 256.02 13.79 256.19 13.79 256.35 13.79 256.51 13.79 256.67 13.79 256.83 13.79 256.99 13.79 257.15 13.79 257.31 13.79 257.47 13.79 257.63 13.79 257.79 13.79 257.95 13.79 258.11 13.79 258.28 13.79 258.44 13.79 258.6 13.79 258.76 13.79 258.92 13.79 259.08 13.79 259.24 13.79 259.4 13.79 259.56 13.79 259.72 13.79 259.88 13.79 260.04 13.79 260.2 13.79 260.36 13.79 260.53 13.79 260.69 13.79 260.85 13.79 261.01 13.79 261.17 13.79 261.33 13.79 261.49 13.79 261.65 13.79 261.81 13.79 261.97 13.79 262.13 13.79 262.29 13.79 262.45 13.79 262.62 13.79 262.78 13.79 262.94 13.79 263.1 13.79 263.26 13.79 263.42 13.79 263.58 13.79 263.74 13.79 263.9 13.79 264.06 13.79 264.22 13.79 264.38 13.79 264.54 13.79 264.71 13.79 264.87 13.79 265.03 13.79 265.19 13.79 265.35 13.79 265.51 13.79 265.67 13.79 265.83 13.79 265.99 13.79 266.15 13.79 266.31 13.79 266.47 13.79 266.63 13.79 266.8 13.79 266.96 13.79 267.12 13.79 267.28 13.79 267.44 13.79 267.6 13.79 267.76 13.79 267.92 13.79 268.08 13.79 268.24 13.79 268.4 13.79 268.56 13.79 268.72 13.79 268.89 13.79 269.05 13.79 269.21 13.79 269.37 13.79 269.53 13.79 269.69 13.79 269.85 13.79 270.01 13.79 270.17 13.79 270.33 13.79 270.49 13.79 270.65 13.79 270.81 13.79 270.98 13.79 271.14 13.79 271.3 13.79 271.46 13.79 271.62 13.79 271.78 13.79 271.94 13.79 272.1 13.79 272.26 13.79 272.42 13.79 272.58 13.79 272.74 13.79 272.9 13.79 273.07 13.79 273.23 13.79 273.39 13.79 273.55 13.79 273.71 13.79 273.87 13.79 274.03 13.79 274.19 13.79 274.35 13.79 274.51 13.79 274.67 13.79 274.83 13.79 274.99 13.79 275.16 13.79 275.32 13.79 275.48 13.79 275.64 13.79 275.8 13.79 275.96 13.79 276.12 13.79 276.28 13.79 276.44 13.79 276.6 13.79 276.76 13.79 276.92 13.79 277.08 88.95 277.25 88.95 277.41 88.95 277.57 88.95 277.73 88.95 277.89 88.95 278.05 88.95 278.21 88.95 278.37 88.95 278.53 88.95 278.69 88.95 278.85 88.95 279.01 88.95 279.17 88.95 279.34 88.95 279.5 88.95 279.66 88.95 279.82 88.95 279.98 88.95 280.14 88.95 280.3 88.95 280.46 88.95 280.62 88.95 280.78 88.95 280.94 88.95 281.1 88.95 281.26 88.95 281.43 88.95 281.59 88.95 281.75 88.95 281.91 88.95 282.07 88.95 282.23 88.95 282.39 88.95 282.55 88.95 282.71 88.95 282.87 88.95 283.03 88.95 283.19 88.95 283.35 88.95 283.51 88.95 283.68 88.95 283.84 88.95 284 88.95 284.16 88.95 284.32 88.95 284.48 88.95 284.64 88.95 284.8 88.95 284.96 88.95 285.12 88.95 285.28 88.95 285.44 88.95 285.6 88.95 285.77 88.95 285.93 88.95 286.09 88.95 286.25 88.95 286.41 88.95 286.57 88.95 286.73 88.95 286.89 88.95 287.05 88.95 287.21 88.95 287.37 88.95 287.53 88.95 287.69 88.95 287.86 88.95 288.02 88.95 288.18 88.95 288.34 88.95 288.5 88.95 288.66 88.95 288.82 88.95 288.98 88.95 289.14 88.95 289.3 88.95 289.46 88.95 289.62 88.95 289.78 88.95 289.95 88.95 290.11 88.95 290.27 88.95 290.43 88.95 290.59 88.95 290.75 88.95 290.91 88.95 291.07 88.95 291.23 88.95 291.39 88.95 291.55 88.95 291.71 88.95 291.87 88.95 292.04 88.95 292.2 88.95 292.36 88.95 292.52 88.95 292.68 88.95 292.84 88.95 293 88.95"/>
      </g>
      <g stroke-width="0.71" fill="#000000" fill-opacity="0.000" class="geometry" stroke-dasharray="none" stroke="#CCCCCC" id="img-cfb106a4-10">
        <path fill="none" d="M212.78,88.95 L 212.94 88.95 213.1 88.95 213.26 88.95 213.42 88.95 213.58 88.95 213.74 88.95 213.9 88.95 214.07 88.95 214.23 88.95 214.39 88.95 214.55 88.95 214.71 88.95 214.87 88.95 215.03 88.95 215.19 88.95 215.35 88.95 215.51 88.95 215.67 88.95 215.83 88.95 215.99 88.95 216.15 88.95 216.32 88.95 216.48 88.95 216.64 88.95 216.8 88.95 216.96 88.95 217.12 88.95 217.28 88.95 217.44 88.95 217.6 88.95 217.76 88.95 217.92 88.95 218.08 88.95 218.24 88.95 218.41 88.95 218.57 88.95 218.73 88.95 218.89 88.95 219.05 88.95 219.21 88.95 219.37 88.95 219.53 88.95 219.69 88.95 219.85 88.95 220.01 88.95 220.17 88.95 220.33 88.95 220.5 88.95 220.66 88.95 220.82 88.95 220.98 88.95 221.14 88.95 221.3 88.95 221.46 88.95 221.62 88.95 221.78 88.95 221.94 88.95 222.1 88.95 222.26 88.95 222.42 88.95 222.59 88.95 222.75 88.95 222.91 88.95 223.07 88.95 223.23 88.95 223.39 88.95 223.55 88.95 223.71 88.95 223.87 88.95 224.03 88.95 224.19 88.95 224.35 88.95 224.51 88.95 224.68 88.95 224.84 88.95 225 88.95 225.16 88.95 225.32 88.95 225.48 88.95 225.64 88.95 225.8 88.95 225.96 88.95 226.12 88.95 226.28 88.95 226.44 88.95 226.6 88.95 226.77 88.95 226.93 88.95 227.09 88.95 227.25 88.95 227.41 88.95 227.57 88.95 227.73 88.95 227.89 88.95 228.05 88.95 228.21 88.95 228.37 88.95 228.53 88.95 228.69 88.95 228.86 13.79 229.02 13.79 229.18 13.79 229.34 13.79 229.5 13.79 229.66 13.79 229.82 13.79 229.98 13.79 230.14 13.79 230.3 13.79 230.46 13.79 230.62 13.79 230.78 13.79 230.95 13.79 231.11 13.79 231.27 13.79 231.43 13.79 231.59 13.79 231.75 13.79 231.91 13.79 232.07 13.79 232.23 13.79 232.39 13.79 232.55 13.79 232.71 13.79 232.87 13.79 233.04 13.79 233.2 13.79 233.36 13.79 233.52 13.79 233.68 13.79 233.84 13.79 234 13.79 234.16 13.79 234.32 13.79 234.48 13.79 234.64 13.79 234.8 13.79 234.96 13.79 235.13 13.79 235.29 13.79 235.45 13.79 235.61 13.79 235.77 13.79 235.93 13.79 236.09 13.79 236.25 13.79 236.41 13.79 236.57 13.79 236.73 13.79 236.89 13.79 237.05 13.79 237.22 13.79 237.38 13.79 237.54 13.79 237.7 13.79 237.86 13.79 238.02 13.79 238.18 13.79 238.34 13.79 238.5 13.79 238.66 13.79 238.82 13.79 238.98 13.79 239.14 13.79 239.3 13.79 239.47 13.79 239.63 13.79 239.79 13.79 239.95 13.79 240.11 13.79 240.27 13.79 240.43 13.79 240.59 13.79 240.75 13.79 240.91 13.79 241.07 13.79 241.23 13.79 241.39 13.79 241.56 13.79 241.72 13.79 241.88 13.79 242.04 13.79 242.2 13.79 242.36 13.79 242.52 13.79 242.68 13.79 242.84 13.79 243 13.79 243.16 13.79 243.32 13.79 243.48 13.79 243.65 13.79 243.81 13.79 243.97 13.79 244.13 13.79 244.29 13.79 244.45 13.79 244.61 13.79 244.77 13.79 244.93 13.79 245.09 13.79 245.25 13.79 245.41 13.79 245.57 13.79 245.74 13.79 245.9 13.79 246.06 13.79 246.22 13.79 246.38 13.79 246.54 13.79 246.7 13.79 246.86 13.79 247.02 13.79 247.18 13.79 247.34 13.79 247.5 13.79 247.66 13.79 247.83 13.79 247.99 13.79 248.15 13.79 248.31 13.79 248.47 13.79 248.63 13.79 248.79 13.79 248.95 13.79 249.11 13.79 249.27 13.79 249.43 13.79 249.59 13.79 249.75 13.79 249.92 13.79 250.08 13.79 250.24 13.79 250.4 13.79 250.56 13.79 250.72 13.79 250.88 13.79 251.04 13.79 251.2 13.79 251.36 13.79 251.52 13.79 251.68 13.79 251.84 13.79 252.01 13.79 252.17 13.79 252.33 13.79 252.49 13.79 252.65 13.79 252.81 13.79 252.97 13.79 253.13 13.79 253.29 13.79 253.45 13.79 253.61 13.79 253.77 13.79 253.93 13.79 254.1 13.79 254.26 13.79 254.42 13.79 254.58 13.79 254.74 13.79 254.9 13.79 255.06 13.79 255.22 13.79 255.38 13.79 255.54 13.79 255.7 13.79 255.86 13.79 256.02 13.79 256.19 13.79 256.35 13.79 256.51 13.79 256.67 13.79 256.83 13.79 256.99 13.79 257.15 13.79 257.31 13.79 257.47 13.79 257.63 13.79 257.79 13.79 257.95 13.79 258.11 13.79 258.28 13.79 258.44 13.79 258.6 13.79 258.76 13.79 258.92 13.79 259.08 13.79 259.24 13.79 259.4 13.79 259.56 13.79 259.72 13.79 259.88 13.79 260.04 13.79 260.2 13.79 260.36 13.79 260.53 13.79 260.69 13.79 260.85 13.79 261.01 88.95 261.17 88.95 261.33 88.95 261.49 88.95 261.65 88.95 261.81 88.95 261.97 88.95 262.13 88.95 262.29 88.95 262.45 88.95 262.62 88.95 262.78 88.95 262.94 88.95 263.1 88.95 263.26 88.95 263.42 88.95 263.58 88.95 263.74 88.95 263.9 88.95 264.06 88.95 264.22 88.95 264.38 88.95 264.54 88.95 264.71 88.95 264.87 88.95 265.03 88.95 265.19 88.95 265.35 88.95 265.51 88.95 265.67 88.95 265.83 88.95 265.99 88.95 266.15 88.95 266.31 88.95 266.47 88.95 266.63 88.95 266.8 88.95 266.96 88.95 267.12 88.95 267.28 88.95 267.44 88.95 267.6 88.95 267.76 88.95 267.92 88.95 268.08 88.95 268.24 88.95 268.4 88.95 268.56 88.95 268.72 88.95 268.89 88.95 269.05 88.95 269.21 88.95 269.37 88.95 269.53 88.95 269.69 88.95 269.85 88.95 270.01 88.95 270.17 88.95 270.33 88.95 270.49 88.95 270.65 88.95 270.81 88.95 270.98 88.95 271.14 88.95 271.3 88.95 271.46 88.95 271.62 88.95 271.78 88.95 271.94 88.95 272.1 88.95 272.26 88.95 272.42 88.95 272.58 88.95 272.74 88.95 272.9 88.95 273.07 88.95 273.23 88.95 273.39 88.95 273.55 88.95 273.71 88.95 273.87 88.95 274.03 88.95 274.19 88.95 274.35 88.95 274.51 88.95 274.67 88.95 274.83 88.95 274.99 88.95 275.16 88.95 275.32 88.95 275.48 88.95 275.64 88.95 275.8 88.95 275.96 88.95 276.12 88.95 276.28 88.95 276.44 88.95 276.6 88.95 276.76 88.95 276.92 88.95 277.08 88.95 277.25 88.95 277.41 88.95 277.57 88.95 277.73 88.95 277.89 88.95 278.05 88.95 278.21 88.95 278.37 88.95 278.53 88.95 278.69 88.95 278.85 88.95 279.01 88.95 279.17 88.95 279.34 88.95 279.5 88.95 279.66 88.95 279.82 88.95 279.98 88.95 280.14 88.95 280.3 88.95 280.46 88.95 280.62 88.95 280.78 88.95 280.94 88.95 281.1 88.95 281.26 88.95 281.43 88.95 281.59 88.95 281.75 88.95 281.91 88.95 282.07 88.95 282.23 88.95 282.39 88.95 282.55 88.95 282.71 88.95 282.87 88.95 283.03 88.95 283.19 88.95 283.35 88.95 283.51 88.95 283.68 88.95 283.84 88.95 284 88.95 284.16 88.95 284.32 88.95 284.48 88.95 284.64 88.95 284.8 88.95 284.96 88.95 285.12 88.95 285.28 88.95 285.44 88.95 285.6 88.95 285.77 88.95 285.93 88.95 286.09 88.95 286.25 88.95 286.41 88.95 286.57 88.95 286.73 88.95 286.89 88.95 287.05 88.95 287.21 88.95 287.37 88.95 287.53 88.95 287.69 88.95 287.86 88.95 288.02 88.95 288.18 88.95 288.34 88.95 288.5 88.95 288.66 88.95 288.82 88.95 288.98 88.95 289.14 88.95 289.3 88.95 289.46 88.95 289.62 88.95 289.78 88.95 289.95 88.95 290.11 88.95 290.27 88.95 290.43 88.95 290.59 88.95 290.75 88.95 290.91 88.95 291.07 88.95 291.23 88.95 291.39 88.95 291.55 88.95 291.71 88.95 291.87 88.95 292.04 88.95 292.2 88.95 292.36 88.95 292.52 88.95 292.68 88.95 292.84 88.95 293 88.95"/>
      </g>
    </g>
  </g>
</g>
  <g class="guide ylabels" font-size="2.82" font-family="'PT Sans Caption','Helvetica Neue','Helvetica',sans-serif" fill="#6C606B" id="img-cfb106a4-11">
    <text x="209.78" y="88.95" text-anchor="end" dy="0.35em">0.0</text>
    <text x="209.78" y="51.37" text-anchor="end" dy="0.35em">0.5</text>
    <text x="209.78" y="13.79" text-anchor="end" dy="0.35em">1.0</text>
  </g>
  <g font-size="3.88" font-family="'PT Sans','Helvetica Neue','Helvetica',sans-serif" fill="#564A55" stroke="#000000" stroke-opacity="0.000" id="img-cfb106a4-12">
    <text x="252.89" y="9.79" text-anchor="middle">offset uniform</text>
  </g>
</g>
<g class="plotroot xscalable yscalable" id="img-cfb106a4-13">
  <g class="guide xlabels" font-size="2.82" font-family="'PT Sans Caption','Helvetica Neue','Helvetica',sans-serif" fill="#6C606B" id="img-cfb106a4-14">
    <text x="112.78" y="91.95" text-anchor="middle" dy="0.6em">0.0</text>
    <text x="152.89" y="91.95" text-anchor="middle" dy="0.6em">0.5</text>
    <text x="193" y="91.95" text-anchor="middle" dy="0.6em">1.0</text>
  </g>
<g clip-path="url(#img-cfb106a4-15)">
  <g id="img-cfb106a4-16">
    <g pointer-events="visible" opacity="1" fill="#000000" fill-opacity="0.000" stroke="#000000" stroke-opacity="0.000" class="guide background" id="img-cfb106a4-17">
      <rect x="110.78" y="11.79" width="84.22" height="79.16"/>
    </g>
    <g class="guide xgridlines yfixed" stroke-dasharray="0.5,0.5" stroke-width="0.2" stroke="#D0D0E0" id="img-cfb106a4-18">
      <path fill="none" d="M112.78,11.79 L 112.78 90.95"/>
      <path fill="none" d="M152.89,11.79 L 152.89 90.95"/>
      <path fill="none" d="M193,11.79 L 193 90.95"/>
    </g>
    <g class="guide ygridlines xfixed" stroke-dasharray="0.5,0.5" stroke-width="0.2" stroke="#D0D0E0" id="img-cfb106a4-19">
      <path fill="none" d="M110.78,88.95 L 195 88.95"/>
      <path fill="none" d="M110.78,73.92 L 195 73.92"/>
      <path fill="none" d="M110.78,58.89 L 195 58.89"/>
      <path fill="none" d="M110.78,43.86 L 195 43.86"/>
      <path fill="none" d="M110.78,28.83 L 195 28.83"/>
      <path fill="none" d="M110.78,13.79 L 195 13.79"/>
    </g>
    <g class="plotpanel" id="img-cfb106a4-20">
      <g stroke-width="0.3" fill="#000000" fill-opacity="0.000" class="geometry" stroke-dasharray="none" stroke="#00BFFF" id="img-cfb106a4-21">
        <path fill="none" d="M112.78,88.95 L 112.94 88.95 113.1 88.95 113.26 88.95 113.42 88.95 113.58 88.95 113.74 88.95 113.9 88.95 114.07 88.95 114.23 88.95 114.39 88.95 114.55 88.95 114.71 88.95 114.87 88.95 115.03 88.95 115.19 88.95 115.35 88.95 115.51 88.95 115.67 88.95 115.83 88.95 115.99 88.95 116.15 88.95 116.32 88.95 116.48 88.95 116.64 88.95 116.8 88.95 116.96 88.94 117.12 88.94 117.28 88.94 117.44 88.94 117.6 88.94 117.76 88.94 117.92 88.94 118.08 88.93 118.24 88.93 118.41 88.93 118.57 88.93 118.73 88.93 118.89 88.92 119.05 88.92 119.21 88.92 119.37 88.91 119.53 88.91 119.69 88.91 119.85 88.9 120.01 88.9 120.17 88.89 120.33 88.89 120.5 88.88 120.66 88.88 120.82 88.87 120.98 88.86 121.14 88.86 121.3 88.85 121.46 88.84 121.62 88.83 121.78 88.82 121.94 88.81 122.1 88.81 122.26 88.8 122.42 88.79 122.59 88.77 122.75 88.76 122.91 88.75 123.07 88.74 123.23 88.73 123.39 88.71 123.55 88.7 123.71 88.68 123.87 88.67 124.03 88.65 124.19 88.63 124.35 88.62 124.51 88.6 124.68 88.58 124.84 88.56 125 88.54 125.16 88.52 125.32 88.5 125.48 88.47 125.64 88.45 125.8 88.43 125.96 88.4 126.12 88.38 126.28 88.35 126.44 88.32 126.6 88.29 126.77 88.26 126.93 88.23 127.09 88.2 127.25 88.17 127.41 88.14 127.57 88.1 127.73 88.07 127.89 88.03 128.05 87.99 128.21 87.95 128.37 87.91 128.53 87.87 128.69 87.83 128.86 87.79 129.02 87.74 129.18 87.7 129.34 87.65 129.5 87.6 129.66 87.55 129.82 87.5 129.98 87.45 130.14 87.4 130.3 87.35 130.46 87.29 130.62 87.23 130.78 87.18 130.95 87.12 131.11 87.06 131.27 86.99 131.43 86.93 131.59 86.86 131.75 86.8 131.91 86.73 132.07 86.66 132.23 86.59 132.39 86.52 132.55 86.44 132.71 86.37 132.87 86.29 133.04 86.21 133.2 86.13 133.36 86.05 133.52 85.96 133.68 85.88 133.84 85.79 134 85.7 134.16 85.61 134.32 85.52 134.48 85.43 134.64 85.33 134.8 85.23 134.96 85.13 135.13 85.03 135.29 84.93 135.45 84.83 135.61 84.72 135.77 84.61 135.93 84.5 136.09 84.39 136.25 84.28 136.41 84.16 136.57 84.04 136.73 83.92 136.89 83.8 137.05 83.68 137.22 83.55 137.38 83.42 137.54 83.29 137.7 83.16 137.86 83.03 138.02 82.89 138.18 82.76 138.34 82.62 138.5 82.47 138.66 82.33 138.82 82.18 138.98 82.04 139.14 81.89 139.3 81.73 139.47 81.58 139.63 81.42 139.79 81.26 139.95 81.1 140.11 80.94 140.27 80.78 140.43 80.61 140.59 80.44 140.75 80.27 140.91 80.09 141.07 79.92 141.23 79.74 141.39 79.56 141.56 79.37 141.72 79.19 141.88 79 142.04 78.81 142.2 78.62 142.36 78.43 142.52 78.23 142.68 78.03 142.84 77.83 143 77.63 143.16 77.42 143.32 77.21 143.48 77 143.65 76.79 143.81 76.57 143.97 76.36 144.13 76.14 144.29 75.92 144.45 75.69 144.61 75.47 144.77 75.24 144.93 75.01 145.09 74.77 145.25 74.54 145.41 74.3 145.57 74.06 145.74 73.81 145.9 73.57 146.06 73.32 146.22 73.07 146.38 72.82 146.54 72.57 146.7 72.31 146.86 72.05 147.02 71.79 147.18 71.53 147.34 71.26 147.5 70.99 147.66 70.72 147.83 70.45 147.99 70.18 148.15 69.9 148.31 69.62 148.47 69.34 148.63 69.05 148.79 68.77 148.95 68.48 149.11 68.19 149.27 67.9 149.43 67.6 149.59 67.31 149.75 67.01 149.92 66.71 150.08 66.4 150.24 66.1 150.4 65.79 150.56 65.48 150.72 65.17 150.88 64.86 151.04 64.54 151.2 64.22 151.36 63.9 151.52 63.58 151.68 63.26 151.84 62.93 152.01 62.6 152.17 62.27 152.33 61.94 152.49 61.61 152.65 61.27 152.81 60.94 152.97 60.6 153.13 60.26 153.29 59.91 153.45 59.57 153.61 59.22 153.77 58.88 153.93 58.53 154.1 58.18 154.26 57.82 154.42 57.47 154.58 57.11 154.74 56.76 154.9 56.4 155.06 56.04 155.22 55.67 155.38 55.31 155.54 54.95 155.7 54.58 155.86 54.21 156.02 53.84 156.19 53.47 156.35 53.1 156.51 52.73 156.67 52.36 156.83 51.98 156.99 51.61 157.15 51.23 157.31 50.85 157.47 50.47 157.63 50.09 157.79 49.71 157.95 49.33 158.11 48.95 158.28 48.56 158.44 48.18 158.6 47.79 158.76 47.41 158.92 47.02 159.08 46.64 159.24 46.25 159.4 45.86 159.56 45.47 159.72 45.08 159.88 44.69 160.04 44.3 160.2 43.91 160.36 43.52 160.53 43.13 160.69 42.74 160.85 42.35 161.01 41.96 161.17 41.57 161.33 41.18 161.49 40.79 161.65 40.4 161.81 40.01 161.97 39.62 162.13 39.23 162.29 38.85 162.45 38.46 162.62 38.07 162.78 37.68 162.94 37.3 163.1 36.91 163.26 36.53 163.42 36.14 163.58 35.76 163.74 35.38 163.9 35 164.06 34.62 164.22 34.24 164.38 33.86 164.54 33.48 164.71 33.11 164.87 32.73 165.03 32.36 165.19 31.99 165.35 31.62 165.51 31.26 165.67 30.89 165.83 30.53 165.99 30.17 166.15 29.81 166.31 29.45 166.47 29.09 166.63 28.74 166.8 28.39 166.96 28.04 167.12 27.7 167.28 27.35 167.44 27.01 167.6 26.67 167.76 26.34 167.92 26.01 168.08 25.68 168.24 25.35 168.4 25.03 168.56 24.71 168.72 24.39 168.89 24.08 169.05 23.77 169.21 23.47 169.37 23.16 169.53 22.87 169.69 22.57 169.85 22.28 170.01 22 170.17 21.71 170.33 21.44 170.49 21.16 170.65 20.89 170.81 20.63 170.98 20.37 171.14 20.12 171.3 19.87 171.46 19.62 171.62 19.38 171.78 19.15 171.94 18.92 172.1 18.69 172.26 18.47 172.42 18.26 172.58 18.05 172.74 17.85 172.9 17.66 173.07 17.47 173.23 17.29 173.39 17.11 173.55 16.94 173.71 16.78 173.87 16.62 174.03 16.47 174.19 16.33 174.35 16.19 174.51 16.06 174.67 15.94 174.83 15.82 174.99 15.72 175.16 15.62 175.32 15.53 175.48 15.44 175.64 15.37 175.8 15.3 175.96 15.24 176.12 15.19 176.28 15.15 176.44 15.12 176.6 15.09 176.76 15.08 176.92 15.07 177.08 15.07 177.25 15.08 177.41 15.11 177.57 15.14 177.73 15.18 177.89 15.23 178.05 15.29 178.21 15.36 178.37 15.44 178.53 15.54 178.69 15.64 178.85 15.75 179.01 15.88 179.17 16.01 179.34 16.16 179.5 16.32 179.66 16.49 179.82 16.67 179.98 16.87 180.14 17.07 180.3 17.29 180.46 17.52 180.62 17.77 180.78 18.02 180.94 18.29 181.1 18.57 181.26 18.87 181.43 19.18 181.59 19.5 181.75 19.84 181.91 20.19 182.07 20.55 182.23 20.93 182.39 21.32 182.55 21.73 182.71 22.15 182.87 22.59 183.03 23.04 183.19 23.51 183.35 23.99 183.51 24.49 183.68 25 183.84 25.53 184 26.08 184.16 26.64 184.32 27.22 184.48 27.82 184.64 28.43 184.8 29.06 184.96 29.71 185.12 30.38 185.28 31.06 185.44 31.76 185.6 32.48 185.77 33.22 185.93 33.98 186.09 34.75 186.25 35.55 186.41 36.36 186.57 37.2 186.73 38.05 186.89 38.92 187.05 39.81 187.21 40.73 187.37 41.66 187.53 42.61 187.69 43.59 187.86 44.58 188.02 45.6 188.18 46.64 188.34 47.7 188.5 48.78 188.66 49.89 188.82 51.01 188.98 52.16 189.14 53.34 189.3 54.53 189.46 55.75 189.62 56.99 189.78 58.26 189.95 59.55 190.11 60.86 190.27 62.2 190.43 63.57 190.59 64.96 190.75 66.37 190.91 67.81 191.07 69.27 191.23 70.77 191.39 72.28 191.55 73.83 191.71 75.4 191.87 76.99 192.04 78.62 192.2 80.27 192.36 81.95 192.52 83.66 192.68 85.39 192.84 87.16 193 88.95"/>
      </g>
      <g stroke-width="0.71" fill="#000000" fill-opacity="0.000" class="geometry" stroke-dasharray="none" stroke="#CCCCCC" id="img-cfb106a4-22">
        <path fill="none" d="M112.78,88.95 L 112.94 87.16 113.1 85.39 113.26 83.66 113.42 81.95 113.58 80.27 113.74 78.62 113.9 76.99 114.07 75.4 114.23 73.83 114.39 72.28 114.55 70.77 114.71 69.27 114.87 67.81 115.03 66.37 115.19 64.96 115.35 63.57 115.51 62.2 115.67 60.86 115.83 59.55 115.99 58.26 116.15 56.99 116.32 55.75 116.48 54.53 116.64 53.34 116.8 52.16 116.96 51.01 117.12 49.89 117.28 48.78 117.44 47.7 117.6 46.64 117.76 45.6 117.92 44.58 118.08 43.59 118.24 42.61 118.41 41.66 118.57 40.73 118.73 39.81 118.89 38.92 119.05 38.05 119.21 37.2 119.37 36.36 119.53 35.55 119.69 34.75 119.85 33.98 120.01 33.22 120.17 32.48 120.33 31.76 120.5 31.06 120.66 30.38 120.82 29.71 120.98 29.06 121.14 28.43 121.3 27.82 121.46 27.22 121.62 26.64 121.78 26.08 121.94 25.53 122.1 25 122.26 24.49 122.42 23.99 122.59 23.51 122.75 23.04 122.91 22.59 123.07 22.15 123.23 21.73 123.39 21.32 123.55 20.93 123.71 20.55 123.87 20.19 124.03 19.84 124.19 19.5 124.35 19.18 124.51 18.87 124.68 18.57 124.84 18.29 125 18.02 125.16 17.77 125.32 17.52 125.48 17.29 125.64 17.07 125.8 16.87 125.96 16.67 126.12 16.49 126.28 16.32 126.44 16.16 126.6 16.01 126.77 15.88 126.93 15.75 127.09 15.64 127.25 15.54 127.41 15.44 127.57 15.36 127.73 15.29 127.89 15.23 128.05 15.18 128.21 15.14 128.37 15.11 128.53 15.08 128.69 15.07 128.86 15.07 129.02 15.08 129.18 15.09 129.34 15.12 129.5 15.15 129.66 15.19 129.82 15.24 129.98 15.3 130.14 15.37 130.3 15.44 130.46 15.53 130.62 15.62 130.78 15.72 130.95 15.82 131.11 15.94 131.27 16.06 131.43 16.19 131.59 16.33 131.75 16.47 131.91 16.62 132.07 16.78 132.23 16.94 132.39 17.11 132.55 17.29 132.71 17.47 132.87 17.66 133.04 17.85 133.2 18.05 133.36 18.26 133.52 18.47 133.68 18.69 133.84 18.92 134 19.15 134.16 19.38 134.32 19.62 134.48 19.87 134.64 20.12 134.8 20.37 134.96 20.63 135.13 20.89 135.29 21.16 135.45 21.44 135.61 21.71 135.77 22 135.93 22.28 136.09 22.57 136.25 22.87 136.41 23.16 136.57 23.47 136.73 23.77 136.89 24.08 137.05 24.39 137.22 24.71 137.38 25.03 137.54 25.35 137.7 25.68 137.86 26.01 138.02 26.34 138.18 26.67 138.34 27.01 138.5 27.35 138.66 27.7 138.82 28.04 138.98 28.39 139.14 28.74 139.3 29.09 139.47 29.45 139.63 29.81 139.79 30.17 139.95 30.53 140.11 30.89 140.27 31.26 140.43 31.62 140.59 31.99 140.75 32.36 140.91 32.73 141.07 33.11 141.23 33.48 141.39 33.86 141.56 34.24 141.72 34.62 141.88 35 142.04 35.38 142.2 35.76 142.36 36.14 142.52 36.53 142.68 36.91 142.84 37.3 143 37.68 143.16 38.07 143.32 38.46 143.48 38.85 143.65 39.23 143.81 39.62 143.97 40.01 144.13 40.4 144.29 40.79 144.45 41.18 144.61 41.57 144.77 41.96 144.93 42.35 145.09 42.74 145.25 43.13 145.41 43.52 145.57 43.91 145.74 44.3 145.9 44.69 146.06 45.08 146.22 45.47 146.38 45.86 146.54 46.25 146.7 46.64 146.86 47.02 147.02 47.41 147.18 47.79 147.34 48.18 147.5 48.56 147.66 48.95 147.83 49.33 147.99 49.71 148.15 50.09 148.31 50.47 148.47 50.85 148.63 51.23 148.79 51.61 148.95 51.98 149.11 52.36 149.27 52.73 149.43 53.1 149.59 53.47 149.75 53.84 149.92 54.21 150.08 54.58 150.24 54.95 150.4 55.31 150.56 55.67 150.72 56.04 150.88 56.4 151.04 56.76 151.2 57.11 151.36 57.47 151.52 57.82 151.68 58.18 151.84 58.53 152.01 58.88 152.17 59.22 152.33 59.57 152.49 59.91 152.65 60.26 152.81 60.6 152.97 60.94 153.13 61.27 153.29 61.61 153.45 61.94 153.61 62.27 153.77 62.6 153.93 62.93 154.1 63.26 154.26 63.58 154.42 63.9 154.58 64.22 154.74 64.54 154.9 64.86 155.06 65.17 155.22 65.48 155.38 65.79 155.54 66.1 155.7 66.4 155.86 66.71 156.02 67.01 156.19 67.31 156.35 67.6 156.51 67.9 156.67 68.19 156.83 68.48 156.99 68.77 157.15 69.05 157.31 69.34 157.47 69.62 157.63 69.9 157.79 70.18 157.95 70.45 158.11 70.72 158.28 70.99 158.44 71.26 158.6 71.53 158.76 71.79 158.92 72.05 159.08 72.31 159.24 72.57 159.4 72.82 159.56 73.07 159.72 73.32 159.88 73.57 160.04 73.81 160.2 74.06 160.36 74.3 160.53 74.54 160.69 74.77 160.85 75.01 161.01 75.24 161.17 75.47 161.33 75.69 161.49 75.92 161.65 76.14 161.81 76.36 161.97 76.57 162.13 76.79 162.29 77 162.45 77.21 162.62 77.42 162.78 77.63 162.94 77.83 163.1 78.03 163.26 78.23 163.42 78.43 163.58 78.62 163.74 78.81 163.9 79 164.06 79.19 164.22 79.37 164.38 79.56 164.54 79.74 164.71 79.92 164.87 80.09 165.03 80.27 165.19 80.44 165.35 80.61 165.51 80.78 165.67 80.94 165.83 81.1 165.99 81.26 166.15 81.42 166.31 81.58 166.47 81.73 166.63 81.89 166.8 82.04 166.96 82.18 167.12 82.33 167.28 82.47 167.44 82.62 167.6 82.76 167.76 82.89 167.92 83.03 168.08 83.16 168.24 83.29 168.4 83.42 168.56 83.55 168.72 83.68 168.89 83.8 169.05 83.92 169.21 84.04 169.37 84.16 169.53 84.28 169.69 84.39 169.85 84.5 170.01 84.61 170.17 84.72 170.33 84.83 170.49 84.93 170.65 85.03 170.81 85.13 170.98 85.23 171.14 85.33 171.3 85.43 171.46 85.52 171.62 85.61 171.78 85.7 171.94 85.79 172.1 85.88 172.26 85.96 172.42 86.05 172.58 86.13 172.74 86.21 172.9 86.29 173.07 86.37 173.23 86.44 173.39 86.52 173.55 86.59 173.71 86.66 173.87 86.73 174.03 86.8 174.19 86.86 174.35 86.93 174.51 86.99 174.67 87.06 174.83 87.12 174.99 87.18 175.16 87.23 175.32 87.29 175.48 87.35 175.64 87.4 175.8 87.45 175.96 87.5 176.12 87.55 176.28 87.6 176.44 87.65 176.6 87.7 176.76 87.74 176.92 87.79 177.08 87.83 177.25 87.87 177.41 87.91 177.57 87.95 177.73 87.99 177.89 88.03 178.05 88.07 178.21 88.1 178.37 88.14 178.53 88.17 178.69 88.2 178.85 88.23 179.01 88.26 179.17 88.29 179.34 88.32 179.5 88.35 179.66 88.38 179.82 88.4 179.98 88.43 180.14 88.45 180.3 88.47 180.46 88.5 180.62 88.52 180.78 88.54 180.94 88.56 181.1 88.58 181.26 88.6 181.43 88.62 181.59 88.63 181.75 88.65 181.91 88.67 182.07 88.68 182.23 88.7 182.39 88.71 182.55 88.73 182.71 88.74 182.87 88.75 183.03 88.76 183.19 88.77 183.35 88.79 183.51 88.8 183.68 88.81 183.84 88.81 184 88.82 184.16 88.83 184.32 88.84 184.48 88.85 184.64 88.86 184.8 88.86 184.96 88.87 185.12 88.88 185.28 88.88 185.44 88.89 185.6 88.89 185.77 88.9 185.93 88.9 186.09 88.91 186.25 88.91 186.41 88.91 186.57 88.92 186.73 88.92 186.89 88.92 187.05 88.93 187.21 88.93 187.37 88.93 187.53 88.93 187.69 88.93 187.86 88.94 188.02 88.94 188.18 88.94 188.34 88.94 188.5 88.94 188.66 88.94 188.82 88.94 188.98 88.95 189.14 88.95 189.3 88.95 189.46 88.95 189.62 88.95 189.78 88.95 189.95 88.95 190.11 88.95 190.27 88.95 190.43 88.95 190.59 88.95 190.75 88.95 190.91 88.95 191.07 88.95 191.23 88.95 191.39 88.95 191.55 88.95 191.71 88.95 191.87 88.95 192.04 88.95 192.2 88.95 192.36 88.95 192.52 88.95 192.68 88.95 192.84 88.95 193 88.95"/>
      </g>
    </g>
  </g>
</g>
  <g class="guide ylabels" font-size="2.82" font-family="'PT Sans Caption','Helvetica Neue','Helvetica',sans-serif" fill="#6C606B" id="img-cfb106a4-23">
    <text x="109.78" y="88.95" text-anchor="end" dy="0.35em">0.0</text>
    <text x="109.78" y="73.92" text-anchor="end" dy="0.35em">0.5</text>
    <text x="109.78" y="58.89" text-anchor="end" dy="0.35em">1.0</text>
    <text x="109.78" y="43.86" text-anchor="end" dy="0.35em">1.5</text>
    <text x="109.78" y="28.83" text-anchor="end" dy="0.35em">2.0</text>
    <text x="109.78" y="13.79" text-anchor="end" dy="0.35em">2.5</text>
  </g>
  <g font-size="3.88" font-family="'PT Sans','Helvetica Neue','Helvetica',sans-serif" fill="#564A55" stroke="#000000" stroke-opacity="0.000" id="img-cfb106a4-24">
    <text x="152.89" y="9.79" text-anchor="middle">bibeta</text>
  </g>
</g>
<g class="plotroot xscalable yscalable" id="img-cfb106a4-25">
  <g class="guide xlabels" font-size="2.82" font-family="'PT Sans Caption','Helvetica Neue','Helvetica',sans-serif" fill="#6C606B" id="img-cfb106a4-26">
    <text x="12.85" y="91.95" text-anchor="middle" dy="0.6em">-5</text>
    <text x="52.92" y="91.95" text-anchor="middle" dy="0.6em">0</text>
    <text x="93" y="91.95" text-anchor="middle" dy="0.6em">5</text>
  </g>
<g clip-path="url(#img-cfb106a4-27)">
  <g id="img-cfb106a4-28">
    <g pointer-events="visible" opacity="1" fill="#000000" fill-opacity="0.000" stroke="#000000" stroke-opacity="0.000" class="guide background" id="img-cfb106a4-29">
      <rect x="10.85" y="11.79" width="84.15" height="79.16"/>
    </g>
    <g class="guide xgridlines yfixed" stroke-dasharray="0.5,0.5" stroke-width="0.2" stroke="#D0D0E0" id="img-cfb106a4-30">
      <path fill="none" d="M12.85,11.79 L 12.85 90.95"/>
      <path fill="none" d="M52.92,11.79 L 52.92 90.95"/>
      <path fill="none" d="M93,11.79 L 93 90.95"/>
    </g>
    <g class="guide ygridlines xfixed" stroke-dasharray="0.5,0.5" stroke-width="0.2" stroke="#D0D0E0" id="img-cfb106a4-31">
      <path fill="none" d="M10.85,88.95 L 95 88.95"/>
      <path fill="none" d="M10.85,70.16 L 95 70.16"/>
      <path fill="none" d="M10.85,51.37 L 95 51.37"/>
      <path fill="none" d="M10.85,32.58 L 95 32.58"/>
      <path fill="none" d="M10.85,13.79 L 95 13.79"/>
    </g>
    <g class="plotpanel" id="img-cfb106a4-32">
      <g stroke-width="0.3" fill="#000000" fill-opacity="0.000" class="geometry" stroke-dasharray="none" stroke="#00BFFF" id="img-cfb106a4-33">
        <path fill="none" d="M12.85,88.95 L 13.01 88.95 13.17 88.95 13.33 88.95 13.49 88.95 13.65 88.95 13.81 88.95 13.97 88.95 14.13 88.95 14.3 88.95 14.46 88.95 14.62 88.95 14.78 88.95 14.94 88.95 15.1 88.95 15.26 88.95 15.42 88.95 15.58 88.95 15.74 88.95 15.9 88.95 16.06 88.95 16.22 88.95 16.38 88.95 16.54 88.95 16.7 88.95 16.87 88.95 17.03 88.95 17.19 88.95 17.35 88.95 17.51 88.95 17.67 88.95 17.83 88.95 17.99 88.95 18.15 88.95 18.31 88.95 18.47 88.95 18.63 88.95 18.79 88.95 18.95 88.95 19.11 88.95 19.27 88.95 19.44 88.95 19.6 88.95 19.76 88.95 19.92 88.95 20.08 88.95 20.24 88.95 20.4 88.95 20.56 88.95 20.72 88.95 20.88 88.95 21.04 88.95 21.2 88.95 21.36 88.95 21.52 88.95 21.68 88.95 21.84 88.95 22.01 88.95 22.17 88.95 22.33 88.95 22.49 88.95 22.65 88.95 22.81 88.95 22.97 88.95 23.13 88.95 23.29 88.95 23.45 88.95 23.61 88.95 23.77 88.95 23.93 88.95 24.09 88.95 24.25 88.95 24.41 88.95 24.58 88.95 24.74 88.95 24.9 88.95 25.06 88.95 25.22 88.95 25.38 88.95 25.54 88.95 25.7 88.95 25.86 88.95 26.02 88.95 26.18 88.95 26.34 88.94 26.5 88.94 26.66 88.94 26.82 88.94 26.98 88.94 27.15 88.94 27.31 88.94 27.47 88.94 27.63 88.94 27.79 88.94 27.95 88.94 28.11 88.93 28.27 88.93 28.43 88.93 28.59 88.93 28.75 88.93 28.91 88.93 29.07 88.92 29.23 88.92 29.39 88.92 29.55 88.92 29.72 88.91 29.88 88.91 30.04 88.91 30.2 88.9 30.36 88.9 30.52 88.9 30.68 88.89 30.84 88.89 31 88.88 31.16 88.88 31.32 88.87 31.48 88.86 31.64 88.86 31.8 88.85 31.96 88.84 32.12 88.83 32.29 88.83 32.45 88.82 32.61 88.81 32.77 88.8 32.93 88.78 33.09 88.77 33.25 88.76 33.41 88.75 33.57 88.73 33.73 88.72 33.89 88.7 34.05 88.68 34.21 88.66 34.37 88.64 34.53 88.62 34.69 88.6 34.86 88.58 35.02 88.55 35.18 88.52 35.34 88.5 35.5 88.47 35.66 88.43 35.82 88.4 35.98 88.36 36.14 88.33 36.3 88.29 36.46 88.24 36.62 88.2 36.78 88.15 36.94 88.1 37.1 88.05 37.26 88 37.42 87.94 37.59 87.88 37.75 87.81 37.91 87.74 38.07 87.67 38.23 87.6 38.39 87.52 38.55 87.44 38.71 87.35 38.87 87.26 39.03 87.16 39.19 87.06 39.35 86.96 39.51 86.85 39.67 86.73 39.83 86.61 39.99 86.49 40.16 86.35 40.32 86.22 40.48 86.07 40.64 85.92 40.8 85.76 40.96 85.6 41.12 85.43 41.28 85.25 41.44 85.06 41.6 84.87 41.76 84.67 41.92 84.46 42.08 84.24 42.24 84.02 42.4 83.78 42.56 83.54 42.73 83.28 42.89 83.02 43.05 82.75 43.21 82.47 43.37 82.17 43.53 81.87 43.69 81.56 43.85 81.23 44.01 80.9 44.17 80.55 44.33 80.19 44.49 79.82 44.65 79.44 44.81 79.05 44.97 78.64 45.13 78.23 45.3 77.8 45.46 77.35 45.62 76.9 45.78 76.43 45.94 75.95 46.1 75.45 46.26 74.95 46.42 74.43 46.58 73.89 46.74 73.34 46.9 72.78 47.06 72.21 47.22 71.62 47.38 71.02 47.54 70.41 47.7 69.78 47.87 69.14 48.03 68.48 48.19 67.81 48.35 67.13 48.51 66.44 48.67 65.73 48.83 65.02 48.99 64.29 49.15 63.54 49.31 62.79 49.47 62.02 49.63 61.24 49.79 60.45 49.95 59.65 50.11 58.84 50.27 58.02 50.44 57.2 50.6 56.36 50.76 55.51 50.92 54.65 51.08 53.79 51.24 52.92 51.4 52.04 51.56 51.16 51.72 50.27 51.88 49.38 52.04 48.48 52.2 47.58 52.36 46.67 52.52 45.76 52.68 44.85 52.84 43.94 53.01 43.03 53.17 42.12 53.33 41.21 53.49 40.3 53.65 39.4 53.81 38.5 53.97 37.6 54.13 36.71 54.29 35.82 54.45 34.94 54.61 34.07 54.77 33.2 54.93 32.35 55.09 31.5 55.25 30.67 55.41 29.85 55.58 29.04 55.74 28.24 55.9 27.46 56.06 26.69 56.22 25.94 56.38 25.2 56.54 24.48 56.7 23.78 56.86 23.1 57.02 22.44 57.18 21.8 57.34 21.18 57.5 20.58 57.66 20 57.82 19.45 57.98 18.92 58.15 18.41 58.31 17.93 58.47 17.48 58.63 17.05 58.79 16.65 58.95 16.27 59.11 15.92 59.27 15.6 59.43 15.31 59.59 15.05 59.75 14.81 59.91 14.61 60.07 14.43 60.23 14.28 60.39 14.17 60.55 14.08 60.72 14.02 60.88 14 61.04 14 61.2 14.03 61.36 14.09 61.52 14.19 61.68 14.31 61.84 14.46 62 14.65 62.16 14.86 62.32 15.1 62.48 15.37 62.64 15.66 62.8 15.99 62.96 16.34 63.12 16.73 63.29 17.13 63.45 17.57 63.61 18.03 63.77 18.51 63.93 19.02 64.09 19.56 64.25 20.12 64.41 20.7 64.57 21.3 64.73 21.92 64.89 22.57 65.05 23.24 65.21 23.92 65.37 24.62 65.53 25.35 65.69 26.09 65.85 26.84 66.02 27.61 66.18 28.4 66.34 29.2 66.5 30.01 66.66 30.83 66.82 31.67 66.98 32.52 67.14 33.38 67.3 34.24 67.46 35.12 67.62 36 67.78 36.88 67.94 37.78 68.1 38.68 68.26 39.58 68.42 40.48 68.59 41.39 68.75 42.3 68.91 43.21 69.07 44.12 69.23 45.03 69.39 45.94 69.55 46.85 69.71 47.76 69.87 48.66 70.03 49.56 70.19 50.45 70.35 51.34 70.51 52.22 70.67 53.1 70.83 53.96 70.99 54.83 71.16 55.68 71.32 56.53 71.48 57.36 71.64 58.19 71.8 59.01 71.96 59.82 72.12 60.61 72.28 61.4 72.44 62.18 72.6 62.94 72.76 63.69 72.92 64.43 73.08 65.16 73.24 65.88 73.4 66.58 73.56 67.27 73.73 67.95 73.89 68.61 74.05 69.27 74.21 69.9 74.37 70.53 74.53 71.14 74.69 71.74 74.85 72.32 75.01 72.9 75.17 73.45 75.33 74 75.49 74.53 75.65 75.05 75.81 75.55 75.97 76.04 76.13 76.52 76.3 76.99 76.46 77.44 76.62 77.88 76.78 78.31 76.94 78.73 77.1 79.13 77.26 79.52 77.42 79.9 77.58 80.27 77.74 80.62 77.9 80.97 78.06 81.3 78.22 81.62 78.38 81.93 78.54 82.23 78.7 82.52 78.87 82.8 79.03 83.07 79.19 83.34 79.35 83.59 79.51 83.83 79.67 84.06 79.83 84.29 79.99 84.5 80.15 84.71 80.31 84.91 80.47 85.1 80.63 85.29 80.79 85.46 80.95 85.63 81.11 85.8 81.27 85.95 81.44 86.1 81.6 86.24 81.76 86.38 81.92 86.51 82.08 86.64 82.24 86.76 82.4 86.87 82.56 86.98 82.72 87.08 82.88 87.18 83.04 87.28 83.2 87.37 83.36 87.45 83.52 87.54 83.68 87.61 83.84 87.69 84.01 87.76 84.17 87.83 84.33 87.89 84.49 87.95 84.65 88.01 84.81 88.06 84.97 88.11 85.13 88.16 85.29 88.21 85.45 88.25 85.61 88.29 85.77 88.33 85.93 88.37 86.09 88.41 86.25 88.44 86.41 88.47 86.58 88.5 86.74 88.53 86.9 88.56 87.06 88.58 87.22 88.6 87.38 88.63 87.54 88.65 87.7 88.67 87.86 88.69 88.02 88.7 88.18 88.72 88.34 88.73 88.5 88.75 88.66 88.76 88.82 88.77 88.98 88.79 89.15 88.8 89.31 88.81 89.47 88.82 89.63 88.83 89.79 88.84 89.95 88.84 90.11 88.85 90.27 88.86 90.43 88.87 90.59 88.87 90.75 88.88 90.91 88.88 91.07 88.89 91.23 88.89 91.39 88.9 91.55 88.9 91.72 88.9 91.88 88.91 92.04 88.91 92.2 88.91 92.36 88.92 92.52 88.92 92.68 88.92 92.84 88.92 93 88.93"/>
      </g>
      <g stroke-width="0.71" fill="#000000" fill-opacity="0.000" class="geometry" stroke-dasharray="none" stroke="#CCCCCC" id="img-cfb106a4-34">
        <path fill="none" d="M12.85,88.95 L 13.01 88.95 13.17 88.95 13.33 88.95 13.49 88.95 13.65 88.95 13.81 88.95 13.97 88.95 14.13 88.95 14.3 88.95 14.46 88.95 14.62 88.95 14.78 88.95 14.94 88.95 15.1 88.95 15.26 88.95 15.42 88.95 15.58 88.95 15.74 88.95 15.9 88.95 16.06 88.95 16.22 88.95 16.38 88.95 16.54 88.95 16.7 88.95 16.87 88.95 17.03 88.95 17.19 88.95 17.35 88.95 17.51 88.95 17.67 88.95 17.83 88.95 17.99 88.95 18.15 88.95 18.31 88.94 18.47 88.94 18.63 88.94 18.79 88.94 18.95 88.94 19.11 88.94 19.27 88.94 19.44 88.94 19.6 88.94 19.76 88.94 19.92 88.94 20.08 88.93 20.24 88.93 20.4 88.93 20.56 88.93 20.72 88.93 20.88 88.93 21.04 88.92 21.2 88.92 21.36 88.92 21.52 88.92 21.68 88.91 21.84 88.91 22.01 88.91 22.17 88.9 22.33 88.9 22.49 88.9 22.65 88.89 22.81 88.89 22.97 88.88 23.13 88.88 23.29 88.87 23.45 88.86 23.61 88.86 23.77 88.85 23.93 88.84 24.09 88.84 24.25 88.83 24.41 88.82 24.58 88.81 24.74 88.8 24.9 88.79 25.06 88.77 25.22 88.76 25.38 88.75 25.54 88.73 25.7 88.72 25.86 88.7 26.02 88.68 26.18 88.66 26.34 88.64 26.5 88.62 26.66 88.6 26.82 88.58 26.98 88.55 27.15 88.53 27.31 88.5 27.47 88.47 27.63 88.44 27.79 88.4 27.95 88.37 28.11 88.33 28.27 88.29 28.43 88.25 28.59 88.2 28.75 88.16 28.91 88.11 29.07 88.06 29.23 88 29.39 87.94 29.55 87.88 29.72 87.82 29.88 87.75 30.04 87.68 30.2 87.61 30.36 87.53 30.52 87.45 30.68 87.36 30.84 87.27 31 87.17 31.16 87.07 31.32 86.97 31.48 86.86 31.64 86.74 31.8 86.62 31.96 86.5 32.12 86.37 32.29 86.23 32.45 86.09 32.61 85.94 32.77 85.78 32.93 85.62 33.09 85.45 33.25 85.27 33.41 85.08 33.57 84.89 33.73 84.69 33.89 84.48 34.05 84.27 34.21 84.04 34.37 83.81 34.53 83.56 34.69 83.31 34.86 83.05 35.02 82.78 35.18 82.49 35.34 82.2 35.5 81.9 35.66 81.59 35.82 81.27 35.98 80.93 36.14 80.59 36.3 80.23 36.46 79.86 36.62 79.48 36.78 79.09 36.94 78.68 37.1 78.27 37.26 77.84 37.42 77.4 37.59 76.94 37.75 76.48 37.91 76 38.07 75.5 38.23 75 38.39 74.48 38.55 73.95 38.71 73.4 38.87 72.84 39.03 72.27 39.19 71.68 39.35 71.08 39.51 70.47 39.67 69.84 39.83 69.2 39.99 68.55 40.16 67.88 40.32 67.2 40.48 66.51 40.64 65.81 40.8 65.09 40.96 64.36 41.12 63.62 41.28 62.86 41.44 62.1 41.6 61.32 41.76 60.53 41.92 59.74 42.08 58.93 42.24 58.11 42.4 57.28 42.56 56.44 42.73 55.59 42.89 54.74 43.05 53.88 43.21 53.01 43.37 52.13 43.53 51.25 43.69 50.36 43.85 49.47 44.01 48.57 44.17 47.67 44.33 46.76 44.49 45.85 44.65 44.94 44.81 44.03 44.97 43.12 45.13 42.21 45.3 41.3 45.46 40.39 45.62 39.49 45.78 38.59 45.94 37.69 46.1 36.8 46.26 35.91 46.42 35.03 46.58 34.15 46.74 33.29 46.9 32.43 47.06 31.59 47.22 30.75 47.38 29.93 47.54 29.12 47.7 28.32 47.87 27.53 48.03 26.76 48.19 26.01 48.35 25.27 48.51 24.55 48.67 23.85 48.83 23.17 48.99 22.5 49.15 21.86 49.31 21.24 49.47 20.64 49.63 20.06 49.79 19.5 49.95 18.97 50.11 18.46 50.27 17.98 50.44 17.52 50.6 17.09 50.76 16.69 50.92 16.31 51.08 15.96 51.24 15.63 51.4 15.34 51.56 15.07 51.72 14.83 51.88 14.63 52.04 14.45 52.2 14.3 52.36 14.18 52.52 14.09 52.68 14.03 52.84 14 53.01 14 53.17 14.03 53.33 14.09 53.49 14.18 53.65 14.3 53.81 14.45 53.97 14.63 54.13 14.83 54.29 15.07 54.45 15.34 54.61 15.63 54.77 15.96 54.93 16.31 55.09 16.69 55.25 17.09 55.41 17.52 55.58 17.98 55.74 18.46 55.9 18.97 56.06 19.5 56.22 20.06 56.38 20.64 56.54 21.24 56.7 21.86 56.86 22.5 57.02 23.17 57.18 23.85 57.34 24.55 57.5 25.27 57.66 26.01 57.82 26.76 57.98 27.53 58.15 28.32 58.31 29.12 58.47 29.93 58.63 30.75 58.79 31.59 58.95 32.43 59.11 33.29 59.27 34.15 59.43 35.03 59.59 35.91 59.75 36.8 59.91 37.69 60.07 38.59 60.23 39.49 60.39 40.39 60.55 41.3 60.72 42.21 60.88 43.12 61.04 44.03 61.2 44.94 61.36 45.85 61.52 46.76 61.68 47.67 61.84 48.57 62 49.47 62.16 50.36 62.32 51.25 62.48 52.13 62.64 53.01 62.8 53.88 62.96 54.74 63.12 55.59 63.29 56.44 63.45 57.28 63.61 58.11 63.77 58.93 63.93 59.74 64.09 60.53 64.25 61.32 64.41 62.1 64.57 62.86 64.73 63.62 64.89 64.36 65.05 65.09 65.21 65.81 65.37 66.51 65.53 67.2 65.69 67.88 65.85 68.55 66.02 69.2 66.18 69.84 66.34 70.47 66.5 71.08 66.66 71.68 66.82 72.27 66.98 72.84 67.14 73.4 67.3 73.95 67.46 74.48 67.62 75 67.78 75.5 67.94 76 68.1 76.48 68.26 76.94 68.42 77.4 68.59 77.84 68.75 78.27 68.91 78.68 69.07 79.09 69.23 79.48 69.39 79.86 69.55 80.23 69.71 80.59 69.87 80.93 70.03 81.27 70.19 81.59 70.35 81.9 70.51 82.2 70.67 82.49 70.83 82.78 70.99 83.05 71.16 83.31 71.32 83.56 71.48 83.81 71.64 84.04 71.8 84.27 71.96 84.48 72.12 84.69 72.28 84.89 72.44 85.08 72.6 85.27 72.76 85.45 72.92 85.62 73.08 85.78 73.24 85.94 73.4 86.09 73.56 86.23 73.73 86.37 73.89 86.5 74.05 86.62 74.21 86.74 74.37 86.86 74.53 86.97 74.69 87.07 74.85 87.17 75.01 87.27 75.17 87.36 75.33 87.45 75.49 87.53 75.65 87.61 75.81 87.68 75.97 87.75 76.13 87.82 76.3 87.88 76.46 87.94 76.62 88 76.78 88.06 76.94 88.11 77.1 88.16 77.26 88.2 77.42 88.25 77.58 88.29 77.74 88.33 77.9 88.37 78.06 88.4 78.22 88.44 78.38 88.47 78.54 88.5 78.7 88.53 78.87 88.55 79.03 88.58 79.19 88.6 79.35 88.62 79.51 88.64 79.67 88.66 79.83 88.68 79.99 88.7 80.15 88.72 80.31 88.73 80.47 88.75 80.63 88.76 80.79 88.77 80.95 88.79 81.11 88.8 81.27 88.81 81.44 88.82 81.6 88.83 81.76 88.84 81.92 88.84 82.08 88.85 82.24 88.86 82.4 88.86 82.56 88.87 82.72 88.88 82.88 88.88 83.04 88.89 83.2 88.89 83.36 88.9 83.52 88.9 83.68 88.9 83.84 88.91 84.01 88.91 84.17 88.91 84.33 88.92 84.49 88.92 84.65 88.92 84.81 88.92 84.97 88.93 85.13 88.93 85.29 88.93 85.45 88.93 85.61 88.93 85.77 88.93 85.93 88.94 86.09 88.94 86.25 88.94 86.41 88.94 86.58 88.94 86.74 88.94 86.9 88.94 87.06 88.94 87.22 88.94 87.38 88.94 87.54 88.94 87.7 88.95 87.86 88.95 88.02 88.95 88.18 88.95 88.34 88.95 88.5 88.95 88.66 88.95 88.82 88.95 88.98 88.95 89.15 88.95 89.31 88.95 89.47 88.95 89.63 88.95 89.79 88.95 89.95 88.95 90.11 88.95 90.27 88.95 90.43 88.95 90.59 88.95 90.75 88.95 90.91 88.95 91.07 88.95 91.23 88.95 91.39 88.95 91.55 88.95 91.72 88.95 91.88 88.95 92.04 88.95 92.2 88.95 92.36 88.95 92.52 88.95 92.68 88.95 92.84 88.95 93 88.95"/>
      </g>
    </g>
  </g>
</g>
  <g class="guide ylabels" font-size="2.82" font-family="'PT Sans Caption','Helvetica Neue','Helvetica',sans-serif" fill="#6C606B" id="img-cfb106a4-35">
    <text x="9.85" y="88.95" text-anchor="end" dy="0.35em">0.0</text>
    <text x="9.85" y="70.16" text-anchor="end" dy="0.35em">0.1</text>
    <text x="9.85" y="51.37" text-anchor="end" dy="0.35em">0.2</text>
    <text x="9.85" y="32.58" text-anchor="end" dy="0.35em">0.3</text>
    <text x="9.85" y="13.79" text-anchor="end" dy="0.35em">0.4</text>
  </g>
  <g font-size="3.88" font-family="'PT Sans','Helvetica Neue','Helvetica',sans-serif" fill="#564A55" stroke="#000000" stroke-opacity="0.000" id="img-cfb106a4-36">
    <text x="52.92" y="9.79" text-anchor="middle">binormal</text>
  </g>
</g>
<defs>
  <clipPath id="img-cfb106a4-3">
  <path d="M210.78,11.79 L 295 11.79 295 90.95 210.78 90.95" />
</clipPath>
  <clipPath id="img-cfb106a4-15">
  <path d="M110.78,11.79 L 195 11.79 195 90.95 110.78 90.95" />
</clipPath>
  <clipPath id="img-cfb106a4-27">
  <path d="M10.85,11.79 L 95 11.79 95 90.95 10.85 90.95" />
</clipPath>
</defs>
</svg>
